<svg width="23" height="23" viewBox="0 0 23 23" version="1.1" xmlns="http://www.w3.org/2000/svg" xmlns:xlink="http://www.w3.org/1999/xlink">
<title>save</title>
<desc>Created using Figma</desc>
<g id="Canvas" transform="translate(-157 -31)">
<g id="save">
<g id="Vector">
<use xlink:href="#path0_fill" transform="translate(157.901 31.1068)" fill="#FFFFFF"/>
</g>
<g id="Vector">
<use xlink:href="#path1_fill" transform="translate(165.56 45.7221)" fill="#FFFFFF"/>
</g>
<g id="Vector">
<use xlink:href="#path2_fill" transform="translate(165.56 48.6606)" fill="#FFFFFF"/>
</g>
</g>
</g>
<defs>
<path id="path0_fill" d="M 21.4432 21.9909C 21.751 21.9909 22 21.7419 22 21.434L 22 5.14345C 22 4.98045 21.9276 4.82651 21.8054 4.72237L 16.4321 0.126775C 16.423 0.11772 16.414 0.113192 16.4049 0.108664C 16.3914 0.099609 16.3823 0.0905536 16.3687 0.0814983C 16.3506 0.0724429 16.337 0.0633875 16.3189 0.0543322C 16.3053 0.0498045 16.2918 0.0407491 16.2782 0.0362214C 16.2601 0.0271661 16.2374 0.0226384 16.2193 0.0181107C 16.2058 0.013583 16.1922 0.00905536 16.1786 0.00905536C 16.1424 0.00452768 16.1107 3.37339e-11 16.0745 3.37339e-11L 0.55679 3.37339e-11C 0.248971 3.37339e-11 0 0.249022 0 0.556905L 0 21.4431C 0 21.751 0.248971 22 0.55679 22L 21.4432 22L 21.4432 21.9909ZM 17.4053 20.8817L 4.59465 20.8817L 4.59465 12.5462C 4.59465 12.3787 4.73045 12.2474 4.89342 12.2474L 17.1066 12.2474C 17.2741 12.2474 17.4053 12.3832 17.4053 12.5462L 17.4053 20.8817ZM 7.32428 1.10475L 15.5132 1.10475L 15.5132 6.89113C 15.5132 6.92735 15.486 6.95452 15.4498 6.95452L 7.39218 6.95452C 7.35597 6.95452 7.32881 6.92282 7.32881 6.89113L 7.32881 1.10475L 7.32428 1.10475ZM 1.11358 1.10475L 6.21975 1.10475L 6.21975 6.89113C 6.21975 7.53859 6.74486 8.0638 7.39218 8.0638L 15.4498 8.0638C 16.0971 8.0638 16.6222 7.53859 16.6222 6.89113L 16.6222 1.75221L 20.8864 5.40152L 20.8864 20.8817L 18.5144 20.8817L 18.5144 12.5462C 18.5144 11.7674 17.8807 11.1381 17.1066 11.1381L 4.89342 11.1381C 4.11481 11.1381 3.4856 11.772 3.4856 12.5462L 3.4856 20.8862L 1.11358 20.8862L 1.11358 1.10475Z"/>
<path id="path1_fill" d="M 6.12469 2.76348e-07L 0.55679 2.76348e-07C 0.248971 2.76348e-07 -1.38145e-07 0.249022 -1.38145e-07 0.556904C -1.38145e-07 0.864787 0.248971 1.11381 0.55679 1.11381L 6.12469 1.11381C 6.43251 1.11381 6.68148 0.864787 6.68148 0.556904C 6.68148 0.249022 6.43251 2.76348e-07 6.12469 2.76348e-07Z"/>
<path id="path2_fill" d="M 6.12469 0L 0.55679 0C 0.248971 0 -1.38145e-07 0.249022 -1.38145e-07 0.556904C -1.38145e-07 0.864786 0.248971 1.11381 0.55679 1.11381L 6.12469 1.11381C 6.43251 1.11381 6.68148 0.864786 6.68148 0.556904C 6.68148 0.249022 6.43251 0 6.12469 0Z"/>
</defs>
</svg>
